<?xml version="1.0" encoding="UTF-8"?>
<!DOCTYPE svg PUBLIC "-//W3C//DTD SVG 1.1//EN" "http://www.w3.org/Graphics/SVG/1.1/DTD/svg11.dtd">
<svg xmlns="http://www.w3.org/2000/svg" version="1.1" width="500px" height="500px" style="shape-rendering:geometricPrecision; text-rendering:geometricPrecision; image-rendering:optimizeQuality; fill-rule:evenodd; clip-rule:evenodd" xmlns:xlink="http://www.w3.org/1999/xlink">
<g><path style="opacity:1" fill="#808080" d="M 243.5,53.5 C 271.284,52.4654 291.117,64.4654 303,89.5C 311.536,116.547 304.703,138.714 282.5,156C 256.506,170.752 232.339,168.252 210,148.5C 190.542,124.517 189.542,99.8506 207,74.5C 216.655,62.9287 228.822,55.9287 243.5,53.5 Z M 246.5,68.5 C 271.08,68.5896 285.913,80.5896 291,104.5C 292.745,126.505 283.245,141.339 262.5,149C 235.471,153.569 217.971,142.735 210,116.5C 208.139,99.0575 214.306,85.2242 228.5,75C 234.301,71.9029 240.301,69.7363 246.5,68.5 Z"/></g>
<g><path style="opacity:1" fill="#808080" d="M 110.5,139.5 C 138.529,138.092 158.362,150.092 170,175.5C 178.741,207.166 168.908,230.999 140.5,247C 111.609,257.074 88.1093,249.908 70,225.5C 55.5964,197.188 60.0964,172.355 83.5,151C 91.7293,145.099 100.729,141.265 110.5,139.5 Z M 113.5,154.5 C 137.894,154.77 152.727,166.77 158,190.5C 159.745,212.505 150.245,227.339 129.5,235C 102.471,239.569 84.9715,228.735 77,202.5C 75.1451,185.047 81.3118,171.213 95.5,161C 101.301,157.903 107.301,155.736 113.5,154.5 Z"/></g>
<g><path style="opacity:1" fill="#808080" d="M 376.5,139.5 C 404.529,138.092 424.362,150.092 436,175.5C 444.741,207.166 434.908,230.999 406.5,247C 377.609,257.074 354.109,249.908 336,225.5C 321.596,197.188 326.096,172.355 349.5,151C 357.729,145.099 366.729,141.265 376.5,139.5 Z M 379.5,154.5 C 403.894,154.77 418.727,166.77 424,190.5C 425.745,212.505 416.245,227.339 395.5,235C 368.471,239.569 350.971,228.735 343,202.5C 341.145,185.047 347.312,171.213 361.5,161C 367.301,157.903 373.301,155.736 379.5,154.5 Z"/></g>
<g><path style="opacity:1" fill="#15b2f0" d="M 219.5,194.5 C 236.487,194.318 244.32,202.652 243,219.5C 236.497,233.557 226.331,237.057 212.5,230C 202.271,219.957 201.938,209.624 211.5,199C 214.191,197.395 216.858,195.895 219.5,194.5 Z M 221.5,202.5 C 231.147,202.977 235.647,207.977 235,217.5C 232.386,224.157 227.553,226.657 220.5,225C 213.154,221.483 210.988,215.983 214,208.5C 216.114,205.879 218.614,203.879 221.5,202.5 Z"/></g>
<g><path style="opacity:1" fill="#16b2f0" d="M 296.5,217.5 C 295.934,220.873 294.601,223.873 292.5,226.5C 281.75,236.116 271.25,235.783 261,225.5C 254.193,211.248 258.026,201.082 272.5,195C 288.392,194.058 296.392,201.558 296.5,217.5 Z M 288.5,215.5 C 286.025,216.687 285.025,218.687 285.5,221.5C 277.671,227.731 271.171,226.398 266,217.5C 265.321,207.846 269.821,203.013 279.5,203C 285.43,205.092 288.43,209.259 288.5,215.5 Z"/></g>
<g><path style="opacity:0.045" fill="#ebf7fc" d="M 288.5,215.5 C 288.008,217.819 287.008,219.819 285.5,221.5C 285.025,218.687 286.025,216.687 288.5,215.5 Z"/></g>
<g><path style="opacity:0.299" fill="#fcfcfc" d="M 296.5,217.5 C 298.583,221.933 297.249,224.933 292.5,226.5C 294.601,223.873 295.934,220.873 296.5,217.5 Z"/></g>
<g><path style="opacity:1" fill="#17b2f0" d="M 219.5,267.5 C 217.58,270.762 215.246,273.762 212.5,276.5C 202.017,281.805 192.851,280.138 185,271.5C 178.228,257.199 182.062,246.699 196.5,240C 215.148,239.824 222.815,248.99 219.5,267.5 Z M 210.5,265.5 C 208.738,266.262 207.738,267.596 207.5,269.5C 197.82,273.492 191.82,270.326 189.5,260C 191.253,249.97 196.919,246.303 206.5,249C 212.67,253.388 214.004,258.888 210.5,265.5 Z"/></g>
<g><path style="opacity:1" fill="#16b2f0" d="M 317.5,267.5 C 314.877,271.791 311.544,275.457 307.5,278.5C 288.505,281.668 279.338,273.668 280,254.5C 288.832,237.376 300.499,235.043 315,247.5C 318.5,253.836 319.333,260.502 317.5,267.5 Z M 308.5,265.5 C 306.833,266.5 305.5,267.833 304.5,269.5C 295.312,273.21 289.645,270.043 287.5,260C 289.253,249.97 294.919,246.303 304.5,249C 310.677,253.474 312.01,258.974 308.5,265.5 Z"/></g>
<g><path style="opacity:0.29" fill="#c8edfb" d="M 210.5,265.5 C 210.262,267.404 209.262,268.738 207.5,269.5C 207.738,267.596 208.738,266.262 210.5,265.5 Z"/></g>
<g><path style="opacity:0.149" fill="#cdeffc" d="M 308.5,265.5 C 308.167,267.833 306.833,269.167 304.5,269.5C 305.5,267.833 306.833,266.5 308.5,265.5 Z"/></g>
<g><path style="opacity:0.674" fill="#f9fcfe" d="M 317.5,267.5 C 319.986,276.026 316.653,279.693 307.5,278.5C 311.544,275.457 314.877,271.791 317.5,267.5 Z"/></g>
<g><path style="opacity:0.717" fill="#f5fafd" d="M 219.5,267.5 C 220.469,273.188 218.136,276.188 212.5,276.5C 215.246,273.762 217.58,270.762 219.5,267.5 Z"/></g>
<g><path style="opacity:1" fill="#808080" d="M 115.5,268.5 C 144.456,267.505 164.623,280.172 176,306.5C 183.352,338.291 172.519,361.458 143.5,376C 113.49,384.89 89.9903,376.39 73,350.5C 60.3766,320.822 66.8766,296.322 92.5,277C 99.78,272.776 107.447,269.943 115.5,268.5 Z M 162.5,314.5 C 161.853,315.274 161.52,316.274 161.5,317.5C 161.34,319.355 162.007,320.688 163.5,321.5C 163.267,340.477 154.6,353.977 137.5,362C 116.433,368.21 99.5994,362.376 87,344.5C 77.1513,322.736 81.6513,304.57 100.5,290C 121.687,279.337 140.187,282.837 156,300.5C 158.982,304.798 161.149,309.464 162.5,314.5 Z"/></g>
<g><path style="opacity:1" fill="#808080" d="M 376.5,268.5 C 409.696,267.838 430.529,283.504 439,315.5C 441.914,343.179 431.08,363.345 406.5,376C 379.223,385.903 356.39,379.736 338,357.5C 323.774,334.915 324.107,312.582 339,290.5C 348.787,278.363 361.287,271.029 376.5,268.5 Z M 379.5,283.5 C 403.944,283.786 418.777,295.786 424,319.5C 425.247,341.165 415.747,355.998 395.5,364C 368.471,368.569 350.971,357.735 343,331.5C 341.139,314.057 347.306,300.224 361.5,290C 367.301,286.903 373.301,284.736 379.5,283.5 Z"/></g>
<g><path style="opacity:1" fill="#16b2f0" d="M 219.5,280.5 C 236.976,280.476 244.81,289.142 243,306.5C 235.984,319.727 225.818,322.894 212.5,316C 202.271,305.957 201.938,295.624 211.5,285C 214.391,283.726 217.058,282.226 219.5,280.5 Z M 221.5,288.5 C 231.147,288.977 235.647,293.977 235,303.5C 232.386,310.157 227.553,312.657 220.5,311C 209.672,302.98 210.006,295.48 221.5,288.5 Z"/></g>
<g><path style="opacity:1" fill="#18b2f0" d="M 293.5,299.5 C 293.492,302.545 293.159,305.545 292.5,308.5C 284.834,320.038 274.834,322.538 262.5,316C 253.366,307.46 252.199,297.96 259,287.5C 269.624,277.938 279.957,278.271 290,288.5C 292.332,291.822 293.498,295.489 293.5,299.5 Z M 285.5,299.5 C 283.72,300.99 283.054,302.99 283.5,305.5C 283.141,307.371 282.141,308.871 280.5,310C 273.757,312.991 268.257,311.491 264,305.5C 260.934,296.206 264.268,290.54 274,288.5C 280.297,289.631 284.131,293.298 285.5,299.5 Z"/></g>
<g><path style="opacity:0.042" fill="#f9fcfc" d="M 285.5,299.5 C 285.405,301.786 284.738,303.786 283.5,305.5C 283.054,302.99 283.72,300.99 285.5,299.5 Z"/></g>
<g><path style="opacity:0.106" fill="#fcfcfc" d="M 293.5,299.5 C 294.993,300.312 295.66,301.645 295.5,303.5C 295.714,305.942 294.714,307.608 292.5,308.5C 293.159,305.545 293.492,302.545 293.5,299.5 Z"/></g>
<g><path style="opacity:0.165" fill="#e8e8e8" d="M 162.5,314.5 C 163.219,316.764 163.552,319.097 163.5,321.5C 162.007,320.688 161.34,319.355 161.5,317.5C 161.52,316.274 161.853,315.274 162.5,314.5 Z"/></g>
<g><path style="opacity:1" fill="#808080" d="M 243.5,349.5 C 271.521,348.089 291.354,360.089 303,385.5C 311.741,417.166 301.908,440.999 273.5,457C 244.609,467.074 221.109,459.908 203,435.5C 188.596,407.188 193.096,382.355 216.5,361C 224.729,355.099 233.729,351.265 243.5,349.5 Z M 248.5,364.5 C 263.158,364.328 274.992,369.994 284,381.5C 296.372,403.904 292.872,423.404 273.5,440C 251.869,451.201 233.036,447.701 217,429.5C 205.263,409.619 207.43,391.453 223.5,375C 227.235,371.466 231.568,368.966 236.5,367.5C 239.85,367.665 243.183,367.498 246.5,367C 247.381,366.292 248.047,365.458 248.5,364.5 Z"/></g>
<g><path style="opacity:0.665" fill="#efefef" d="M 248.5,364.5 C 248.047,365.458 247.381,366.292 246.5,367C 243.183,367.498 239.85,367.665 236.5,367.5C 240.2,365.755 244.2,364.755 248.5,364.5 Z"/></g>
</svg>
