<?xml version="1.0" standalone="no"?>
<!DOCTYPE svg PUBLIC "-//W3C//DTD SVG 20010904//EN"
 "http://www.w3.org/TR/2001/REC-SVG-20010904/DTD/svg10.dtd">
<svg version="1.0" xmlns="http://www.w3.org/2000/svg"
 width="500.000000pt" height="500.000000pt" viewBox="0 0 500.000000 500.000000"
 preserveAspectRatio="xMidYMid meet">

<g transform="translate(0.000000,500.000000) scale(0.100000,-0.100000)"
fill="#000000" stroke="none">
<path d="M2342 4426 c-231 -76 -382 -284 -382 -525 0 -160 49 -280 162 -393
220 -222 554 -221 778 2 75 74 104 121 140 226 21 59 36 194 23 194 -5 0 -8
13 -5 29 8 59 -49 203 -111 279 -53 65 -125 124 -194 158 -41 20 -77 34 -80
30 -3 -3 -13 0 -21 7 -9 7 -56 13 -126 15 -95 2 -121 -1 -184 -22z m330 -148
c159 -73 249 -210 249 -378 0 -172 -89 -312 -244 -380 -95 -42 -239 -42 -334
0 -61 27 -133 89 -176 152 -106 156 -85 378 48 511 94 94 181 128 315 124 66
-2 98 -9 142 -29z"/>
<path d="M1040 3575 c-106 -30 -179 -74 -260 -157 -99 -100 -149 -226 -149
-377 0 -162 48 -279 161 -393 220 -222 554 -221 778 2 112 112 161 226 163
380 0 102 -16 178 -58 261 -67 131 -210 246 -355 284 -67 18 -218 18 -280 0z
m302 -157 c159 -73 249 -210 249 -378 0 -172 -89 -312 -244 -380 -95 -42 -239
-42 -334 0 -61 27 -133 89 -176 152 -106 156 -85 378 48 511 94 94 181 128
315 124 66 -2 98 -9 142 -29z"/>
<path d="M3696 3575 c-87 -24 -172 -74 -240 -142 -114 -114 -165 -234 -165
-392 0 -162 48 -279 161 -393 170 -171 415 -213 631 -108 212 104 339 339 307
570 -6 41 -15 77 -20 78 -6 2 -7 8 -4 13 7 12 -46 125 -77 164 -42 51 -132
134 -141 129 -4 -3 -8 -1 -8 5 0 13 -113 66 -170 79 -63 15 -216 13 -274 -3z
m306 -157 c159 -73 249 -210 249 -378 0 -172 -89 -312 -244 -380 -95 -42 -239
-42 -334 0 -61 27 -133 89 -176 152 -106 156 -85 378 48 511 94 94 181 128
315 124 66 -2 98 -9 142 -29z"/>
<path d="M1086 2285 c-185 -51 -343 -210 -390 -391 -19 -75 -21 -211 -2 -279
23 -89 75 -176 145 -245 115 -115 227 -162 386 -164 121 -1 210 23 300 82 249
163 329 458 195 721 -29 57 -128 176 -138 167 -3 -3 -12 3 -19 14 -8 11 -19
18 -24 15 -5 -4 -9 -1 -9 5 0 14 -94 58 -163 76 -65 17 -216 17 -281 -1z m265
-141 c148 -44 267 -181 287 -329 36 -275 -190 -501 -465 -464 -31 4 -60 6 -65
3 -4 -3 -8 -2 -8 3 0 4 -21 16 -46 27 -68 28 -154 113 -194 191 -65 129 -51
299 36 413 62 82 126 129 219 158 57 18 172 17 236 -2z"/>
<path d="M3673 2276 c-39 -13 -89 -34 -110 -47 -51 -31 -133 -101 -133 -114 0
-6 -9 -16 -19 -22 -20 -12 -31 -30 -71 -113 -35 -72 -50 -139 -50 -230 0 -159
50 -279 163 -393 114 -115 283 -178 433 -163 289 30 508 267 507 551 0 155
-52 282 -161 391 -62 63 -78 75 -162 115 -113 55 -272 65 -397 25z m337 -152
c168 -79 262 -252 238 -438 -20 -151 -137 -287 -286 -333 -41 -12 -156 -18
-218 -10 -28 4 -91 33 -138 66 -39 26 -86 68 -86 77 0 2 -13 22 -29 44 -70 97
-81 271 -24 391 49 104 147 189 256 225 26 9 75 13 132 11 76 -2 100 -8 155
-33z"/>
<path d="M2366 1475 c-87 -24 -172 -75 -240 -142 -113 -113 -166 -237 -166
-392 0 -160 49 -280 162 -393 220 -222 554 -221 778 2 75 75 102 119 142 230
27 73 28 222 4 305 -55 189 -227 355 -406 394 -66 14 -217 12 -274 -4z m306
-157 c159 -73 249 -210 249 -378 0 -172 -89 -312 -244 -380 -95 -42 -239 -42
-334 0 -61 27 -133 89 -176 152 -106 156 -85 378 48 511 94 94 181 128 315
124 66 -2 98 -9 142 -29z"/>
</g>
</svg>
